<?xml version="1.0" standalone="no"?>
<!DOCTYPE svg PUBLIC "-//W3C//DTD SVG 20010904//EN"
 "http://www.w3.org/TR/2001/REC-SVG-20010904/DTD/svg10.dtd">
<svg version="1.0" xmlns="http://www.w3.org/2000/svg"
 width="800.000000pt" height="800.000000pt" viewBox="0 0 800.000000 800.000000"
 preserveAspectRatio="xMidYMid meet">

<g transform="translate(0.000000,800.000000) scale(0.100000,-0.100000)"
fill="#000000" stroke="none">
<path d="M2652 6610 c-12 -11 -29 -20 -38 -20 -11 0 -14 -5 -10 -16 5 -13 1
-15 -19 -10 -18 5 -26 3 -24 -6 1 -7 1 -29 0 -48 -1 -24 -4 -31 -10 -21 -7 11
-9 11 -13 0 -3 -8 -9 -9 -18 -4 -10 6 -10 10 4 20 15 11 15 13 -5 18 -15 4
-40 -6 -78 -31 -31 -20 -64 -40 -74 -44 -10 -4 -34 -20 -55 -36 -20 -16 -71
-54 -112 -86 -41 -31 -97 -76 -124 -100 l-49 -43 11 -49 c6 -27 13 -139 17
-249 3 -110 10 -239 15 -285 5 -47 10 -129 10 -184 0 -54 5 -163 11 -242 7
-80 10 -147 7 -149 -4 -4 -62 1 -263 25 -52 6 -82 5 -86 -1 -3 -6 -5 -33 -3
-62 1 -29 3 -67 3 -84 1 -19 6 -33 13 -33 7 0 25 -12 40 -27 21 -20 28 -23 28
-11 0 9 -6 19 -12 22 -7 3 0 4 17 3 21 -1 31 -8 34 -22 2 -11 11 -31 21 -45
16 -22 29 -26 121 -35 l104 -10 7 -40 c4 -22 7 -97 7 -167 l1 -127 -57 -3 -58
-3 0 -55 0 -55 59 0 c68 0 73 -7 77 -101 2 -43 -1 -60 -14 -69 -10 -7 -60 -15
-114 -19 -105 -8 -118 -3 -106 43 4 16 2 22 -5 17 -6 -3 -13 -20 -17 -36 -5
-22 -12 -30 -28 -30 -42 0 -47 -11 -42 -90 3 -41 8 -201 11 -355 4 -154 11
-285 16 -292 5 -6 44 -15 86 -19 115 -10 122 -14 122 -71 0 -27 -4 -54 -8 -60
-5 -7 -32 -15 -62 -18 -29 -3 -56 -7 -58 -10 -3 -2 -6 -22 -8 -43 -4 -43 23
-79 50 -69 10 4 13 -1 12 -18 -1 -17 -5 -21 -16 -15 -9 5 -22 8 -30 8 -48 -3
-72 21 -50 47 8 10 7 23 -4 49 -8 20 -17 36 -19 36 -14 0 -46 -84 -41 -106 3
-13 7 -68 8 -122 l1 -97 32 -3 c36 -4 73 25 73 58 0 28 19 25 30 -5 13 -34 52
-52 84 -37 25 11 39 54 29 92 -5 17 -2 21 12 19 39 -8 23 -124 -22 -159 -22
-17 -41 -20 -124 -20 -55 0 -99 -4 -99 -9 0 -5 8 -12 18 -14 10 -3 6 -5 -10
-6 -17 -1 -27 4 -25 11 2 14 -78 29 -91 16 -5 -5 -98 -11 -207 -13 -109 -3
-201 -7 -203 -10 -7 -7 89 -198 151 -300 l55 -90 48 0 c27 0 166 4 309 8 143
4 265 4 272 -1 12 -7 10 -24 -18 -222 -5 -36 -13 -108 -18 -160 -5 -52 -11
-106 -14 -120 -3 -14 -8 -51 -11 -82 l-6 -58 77 -62 c43 -34 138 -101 211
-149 159 -105 456 -259 471 -244 5 6 13 76 17 157 4 82 10 148 14 148 7 0 11
-37 26 -252 l7 -87 46 -19 c124 -53 400 -125 586 -153 72 -11 201 -23 289 -26
l159 -6 -8 149 c-4 82 -9 153 -12 157 -3 5 -9 61 -13 125 -4 64 -17 214 -29
332 -11 118 -21 232 -21 253 0 36 2 38 28 35 31 -4 33 -10 52 -263 26 -341 47
-588 62 -702 l10 -83 67 0 c36 0 125 7 196 15 457 51 880 203 1273 457 99 64
97 62 83 149 -5 30 -17 178 -25 329 -9 151 -21 305 -26 343 -6 37 -10 85 -10
106 l0 38 73 7 c39 4 209 12 377 17 168 6 345 14 394 17 l88 7 64 125 c93 182
143 316 138 365 -13 134 -20 179 -30 182 -8 3 -11 -23 -10 -89 2 -81 -5 -152
-16 -163 -1 -2 -16 -5 -32 -7 -28 -3 -30 -1 -32 36 -2 21 -5 41 -8 43 -11 11
-34 -7 -47 -36 -10 -22 -19 -29 -31 -25 -12 3 -18 0 -18 -9 0 -22 -37 -26
-327 -32 -268 -6 -337 -9 -511 -21 -113 -8 -122 -3 -122 73 0 58 -32 246 -56
331 -14 47 -30 67 -154 191 -139 139 -250 231 -276 231 -8 0 -33 8 -57 19 -23
10 -112 45 -197 78 -85 34 -186 73 -225 88 -38 15 -99 43 -135 61 -77 40 -83
41 -69 10 8 -18 8 -41 1 -85 -6 -34 -9 -68 -6 -76 6 -14 -56 -155 -67 -155
-13 0 -19 33 -8 46 6 7 8 17 5 22 -3 6 1 15 10 22 11 10 12 15 3 21 -12 7 -15
82 -4 99 3 5 -2 15 -11 24 -8 9 -12 21 -8 27 4 8 -1 9 -17 4 -17 -4 -20 -4
-10 3 16 11 17 75 2 116 -9 21 -7 26 9 31 27 9 28 61 1 70 -24 7 -52 38 -30
33 10 -2 14 7 13 32 0 19 3 38 8 41 5 3 2 14 -8 24 -17 17 -17 19 -1 47 9 16
17 49 17 72 0 23 4 46 8 52 31 34 57 209 33 223 -10 7 -10 10 -1 16 7 4 16 1
21 -6 6 -10 9 -6 9 13 0 22 -3 26 -17 21 -17 -7 -17 -6 -1 19 20 31 22 89 2
81 -16 -6 -19 13 -4 22 6 3 10 10 10 16 0 5 -4 9 -10 9 -5 0 -10 -7 -10 -15 0
-8 -12 -18 -27 -21 -16 -4 -33 -14 -39 -22 -9 -12 -15 -12 -33 -2 -13 6 -33
10 -45 8 -12 -3 -28 1 -34 9 -19 20 -30 16 -35 -14 -4 -25 -4 -25 -6 6 -1 30
-4 33 -26 29 -17 -4 -25 -1 -25 9 0 7 -8 16 -17 20 -10 3 -27 13 -37 22 -21
17 -21 19 0 -50 6 -19 4 -21 -22 -15 -20 4 -43 -1 -77 -18 -40 -20 -52 -23
-67 -14 -15 10 -23 9 -37 -5 -17 -14 -24 -15 -63 -3 -25 7 -60 11 -78 8 -28
-4 -34 -1 -39 17 -5 21 -23 30 -23 12 0 -5 -6 -16 -12 -23 -7 -8 -18 -22 -23
-32 -8 -13 -24 -18 -68 -19 -31 -1 -57 2 -57 7 0 4 -7 6 -15 2 -8 -3 -21 1
-29 9 -20 21 -29 19 -23 -5 4 -15 0 -20 -13 -20 -11 0 -21 4 -24 9 -3 4 -17 6
-31 3 -15 -2 -25 0 -25 7 0 7 -9 9 -25 5 -18 -4 -25 -2 -25 9 0 8 -7 20 -16
28 -10 8 -15 27 -14 58 1 25 1 51 0 56 -1 6 -1 66 0 134 1 93 -2 126 -12 132
-10 7 -9 9 3 9 26 0 33 31 9 37 -22 6 -26 18 -10 28 6 4 18 1 27 -7 15 -11 16
-10 11 10 -5 16 -2 22 10 22 10 0 13 3 6 8 -5 4 -21 25 -34 47 -25 40 -28 94
-8 106 7 4 6 8 -1 10 -7 3 -13 29 -13 65 -2 48 2 66 21 92 15 21 20 39 16 54
-4 15 -3 18 2 10 7 -9 16 -5 37 16 17 19 46 34 82 42 30 7 59 19 65 27 6 7 31
13 54 13 24 0 48 6 54 14 7 8 40 17 74 21 34 4 73 12 86 16 25 10 129 -5 168
-23 11 -6 25 -8 30 -5 5 3 32 -1 59 -9 27 -8 60 -13 74 -10 13 2 41 -5 62 -15
27 -14 48 -18 77 -13 35 6 39 4 45 -20 3 -14 12 -26 19 -26 24 0 59 -59 55
-91 -3 -17 1 -30 9 -33 10 -4 12 -23 10 -71 -2 -47 1 -64 9 -61 14 5 21 -31
32 -156 8 -97 17 -118 28 -62 20 107 -19 350 -73 453 -13 24 -23 50 -23 57 0
8 -4 14 -9 14 -5 0 -11 10 -15 23 -3 12 -18 36 -33 52 -16 17 -41 48 -58 70
-31 43 -65 72 -78 67 -5 -1 -11 6 -14 18 -6 23 -110 83 -135 77 -11 -3 -15 0
-11 9 4 10 0 12 -12 8 -9 -4 -20 -3 -24 2 -12 18 -51 34 -81 34 -16 0 -30 4
-30 9 0 10 -111 8 -179 -3 -39 -6 -105 -35 -193 -82 -14 -8 -54 -45 -88 -83
-46 -50 -67 -67 -81 -64 -11 3 -19 10 -18 17 1 6 -1 19 -6 30 -4 10 -4 21 1
25 15 10 13 41 -3 41 -8 0 -12 4 -8 9 9 16 -14 23 -50 17 -29 -6 -34 -12 -44
-53 -22 -87 -7 -277 25 -304 9 -7 10 -16 4 -27 -14 -26 -30 -107 -30 -149 0
-21 -4 -44 -8 -51 -11 -17 13 -235 34 -305 6 -18 -3 -18 -165 -13 -94 3 -180
10 -191 16 -18 10 -20 21 -20 113 0 56 -4 140 -9 187 -6 47 -13 137 -16 200
-10 209 -15 284 -21 345 -3 33 -7 145 -8 249 -2 156 -5 190 -17 200 -20 14
-35 43 -43 85 -5 28 -2 36 19 53 25 19 33 38 17 38 -5 0 -18 -9 -30 -20z
m-112 -150 c0 -5 -9 -10 -21 -10 -11 0 -17 5 -14 10 3 6 13 10 21 10 8 0 14
-4 14 -10z m82 -35 c0 -20 -3 -39 -6 -42 -3 -4 -6 15 -6 42 0 27 3 46 6 42 3
-3 6 -22 6 -42z m-227 5 c3 -5 1 -10 -4 -10 -6 0 -11 5 -11 10 0 6 2 10 4 10
3 0 8 -4 11 -10z m286 -63 c-5 -5 -7 -17 -3 -26 5 -14 4 -14 -11 -2 -12 9 -14
17 -7 26 5 6 7 15 3 19 -4 4 1 4 10 0 12 -4 15 -10 8 -17z m-166 -7 c3 -5 -1
-10 -10 -10 -9 0 -13 5 -10 10 3 6 8 10 10 10 2 0 7 -4 10 -10z m70 0 c4 -6
-7 -10 -27 -10 -25 0 -29 3 -18 10 19 13 37 13 45 0z m41 -60 c-1 -17 -16 -31
-16 -15 0 3 0 14 0 26 0 11 4 18 9 15 4 -3 8 -15 7 -26z m-42 -21 c-3 -5 -10
-7 -15 -3 -5 3 -7 10 -3 15 3 5 10 7 15 3 5 -3 7 -10 3 -15z m35 -32 c6 -8 8
-17 4 -20 -7 -8 -33 11 -33 24 0 13 16 11 29 -4z m54 -42 c-3 -9 -8 -14 -10
-11 -3 3 -2 9 2 15 9 16 15 13 8 -4z m-176 -11 c-3 -3 -12 -4 -19 -1 -8 3 -5
6 6 6 11 1 17 -2 13 -5z m681 -1167 c6 0 12 -3 13 -6 0 -3 2 -16 5 -28 3 -17
-1 -21 -19 -19 -13 1 -29 6 -36 10 -8 5 -14 1 -18 -14 -6 -22 -8 -22 -117 -16
-61 3 -126 6 -143 6 -18 0 -33 5 -33 10 0 6 54 10 141 10 120 0 140 2 135 15
-7 20 23 48 43 39 9 -3 22 -7 29 -7z m16 -242 c22 -9 40 -27 51 -51 16 -34 16
-38 1 -46 -19 -11 -14 -42 16 -100 l18 -38 -30 0 c-30 0 -31 -1 -24 -37 4 -21
11 -46 15 -55 5 -9 9 -26 9 -38 0 -43 75 -150 106 -150 7 0 15 27 21 68 9 62
9 58 9 -62 -1 -95 2 -130 12 -133 6 -3 12 -12 12 -21 1 -15 3 -14 15 2 14 19
15 18 17 -15 4 -83 3 -125 -3 -145 -4 -12 -3 -26 2 -31 13 -13 -2 -75 -19 -81
-12 -4 -17 25 -13 84 2 21 -3 33 -13 37 -17 7 -22 37 -6 37 6 0 10 7 10 16 0
10 -7 14 -22 12 -17 -2 -22 -9 -21 -26 2 -12 -2 -22 -7 -22 -6 0 -10 -9 -10
-20 0 -11 -5 -20 -11 -20 -5 0 -7 -5 -4 -10 9 -14 -10 -36 -48 -55 -16 -8 -32
-15 -34 -15 -6 0 9 54 28 95 27 62 27 69 2 82 -43 22 -237 -13 -258 -47 -3 -6
-20 -10 -37 -10 -22 0 -29 4 -25 14 3 8 0 22 -7 31 -14 20 -66 11 -66 -11 0
-8 -10 -14 -26 -14 -25 0 -26 2 -22 53 2 28 8 60 12 70 6 12 4 17 -8 17 -12 0
-16 10 -16 35 0 21 5 35 13 35 8 0 9 3 1 8 -10 7 -16 58 -31 280 l-6 92 27 0
c16 0 26 6 26 14 0 8 3 23 6 33 4 13 3 14 -3 5 -16 -21 -42 -4 -39 26 2 15 5
26 7 25 31 -14 65 -23 75 -19 7 3 17 -8 23 -25 6 -17 15 -28 21 -24 5 3 10 2
10 -4 0 -5 -6 -11 -12 -14 -9 -3 -6 -12 10 -29 25 -28 29 -56 7 -64 -8 -4 -12
-10 -9 -15 3 -5 0 -9 -5 -9 -15 0 -14 -27 2 -33 9 -3 9 -7 -1 -20 -8 -9 -12
-31 -11 -49 2 -18 -3 -43 -10 -56 -8 -15 -9 -28 -3 -35 11 -14 11 -14 13 -125
2 -103 9 -108 117 -80 41 11 91 21 111 22 35 4 36 5 44 52 4 27 5 68 3 91 -4
33 -3 41 8 37 11 -4 15 9 18 56 1 34 1 65 -2 69 -6 9 -127 8 -136 -1 -9 -9
-34 17 -34 35 0 9 4 17 10 19 14 5 0 48 -16 48 -13 0 -34 30 -34 48 0 6 11 13
25 16 24 6 36 26 16 26 -5 0 -8 26 -6 58 l4 57 56 9 c43 6 59 5 65 -4 5 -8 10
-9 14 -2 3 6 -5 22 -19 36 -14 14 -24 35 -24 48 l2 23 4 -23 c3 -15 17 -29 37
-37z m898 15 c24 -22 53 -40 65 -40 16 0 28 -13 47 -54 14 -30 26 -60 26 -65
0 -6 4 -11 9 -11 15 0 24 -59 11 -75 -8 -10 -8 -19 -1 -34 15 -27 14 -41 -4
-41 -8 0 -15 -4 -15 -10 0 -5 -7 -10 -15 -10 -8 0 -15 2 -15 5 0 3 7 22 15 42
21 49 20 102 -2 110 -10 3 -30 18 -45 32 -50 49 -59 55 -68 41 -5 -7 -15 -10
-25 -6 -14 5 -17 2 -13 -19 5 -24 4 -25 -31 -19 -20 4 -44 11 -53 15 -22 12
-28 11 -28 -1 0 -5 6 -10 14 -10 8 0 17 -7 20 -16 6 -15 -3 -16 -78 -12 -65 3
-86 1 -90 -9 -3 -7 -18 -13 -33 -12 l-28 0 25 11 c20 9 21 12 8 15 -9 2 -35
-5 -58 -17 l-41 -21 11 21 c16 30 92 60 151 60 27 0 49 5 49 10 0 6 20 10 45
10 44 0 45 1 39 27 -5 18 -2 30 8 37 8 6 23 28 33 49 9 20 19 37 21 37 2 0 22
-18 46 -40z m-1234 -28 c-1 -15 2 -37 6 -50 5 -13 3 -22 -3 -22 -6 0 -11 3
-12 8 0 4 -2 23 -4 42 -3 32 1 50 10 50 2 0 3 -12 3 -28z m1512 24 c0 -3 -4
-8 -10 -11 -5 -3 -10 -1 -10 4 0 6 5 11 10 11 6 0 10 -2 10 -4z m-739 -65 c8
12 10 12 19 -1 5 -8 8 -19 6 -25 -1 -5 10 -15 26 -22 19 -8 26 -17 22 -27 -7
-19 -30 -21 -37 -3 -4 7 -8 3 -12 -10 -4 -13 -13 -23 -19 -23 -6 0 -28 -11
-48 -25 l-36 -24 0 39 c0 22 5 44 14 51 8 6 14 15 14 19 0 4 8 25 17 46 16 36
17 37 21 15 3 -19 6 -21 13 -10z m406 -151 c14 -11 32 -20 39 -20 16 0 19 -16
5 -24 -4 -3 -30 -8 -57 -11 -27 -4 -69 -9 -94 -12 -25 -3 -76 -7 -114 -8 -39
-1 -71 -7 -75 -14 -6 -9 -11 -8 -21 4 -10 12 -10 15 4 15 9 0 16 6 16 14 0 17
14 22 90 31 30 4 78 15 105 25 66 23 73 23 102 0z m-477 -24 c0 -3 -4 -8 -10
-11 -5 -3 -10 -1 -10 4 0 6 5 11 10 11 6 0 10 -2 10 -4z m603 -121 c9 -4 23
-3 30 3 6 5 21 6 31 2 19 -6 18 -7 -4 -13 -20 -5 -21 -8 -10 -21 10 -13 10
-16 -1 -16 -8 0 -22 -14 -31 -30 -10 -17 -25 -33 -35 -36 -10 -3 -27 -10 -38
-15 -24 -10 -135 -8 -135 4 0 9 -51 -2 -68 -16 -10 -8 -16 -7 -23 4 -7 11 -11
12 -18 1 -7 -11 -9 -11 -14 1 -3 9 -15 13 -34 11 -15 -2 -21 -1 -13 3 8 3 20
12 25 18 12 15 56 27 106 29 20 1 43 7 51 14 8 6 18 9 21 5 11 -11 57 19 57
37 0 9 3 19 6 23 7 7 71 2 97 -8z m-10 -307 c12 -21 15 -33 7 -38 -6 -4 -10
-13 -8 -21 2 -8 -3 -14 -9 -13 -7 1 -22 2 -33 3 -12 0 -17 6 -14 15 4 10 -2
12 -22 8 -23 -4 -25 -3 -16 14 16 29 51 64 65 64 7 0 20 -14 30 -32z m157 2
c0 -5 -4 -10 -10 -10 -5 0 -10 5 -10 10 0 6 5 10 10 10 6 0 10 -4 10 -10z
m-880 -316 c0 -8 -4 -12 -10 -9 -5 3 -10 10 -10 16 0 5 5 9 10 9 6 0 10 -7 10
-16z m34 -60 c10 -38 0 -41 -19 -5 -13 26 -13 31 -1 31 7 0 17 -12 20 -26z
m471 -281 c8 -19 25 -1063 18 -1075 -6 -10 -40 -10 -47 0 -2 4 -7 129 -10 277
-3 149 -9 388 -12 532 -3 144 -3 267 1 273 10 16 42 12 50 -7z m-1725 -253 c0
-5 -7 -10 -15 -10 -8 0 -15 5 -15 10 0 6 7 10 15 10 8 0 15 -4 15 -10z m-79
-94 c13 -13 29 -22 36 -19 8 3 13 -3 13 -16 0 -11 9 -25 20 -31 22 -12 24 -18
10 -40 -8 -12 -13 -11 -39 8 -17 12 -37 22 -46 22 -8 0 -15 5 -15 11 0 6 -9 9
-19 6 -14 -3 -20 2 -24 19 -2 13 0 24 5 24 5 0 6 9 3 20 -9 29 27 26 56 -4z
m-100 -70 c15 -16 10 -29 -5 -13 -15 15 -20 32 -16 57 2 8 5 4 7 -10 3 -14 9
-29 14 -34z m63 -15 c3 -5 -1 -11 -9 -15 -9 -3 -15 0 -15 9 0 16 16 20 24 6z
m-124 -80 c0 -18 -18 -21 -30 -6 -10 13 -9 15 9 15 11 0 21 -4 21 -9z m83 -57
c-9 -24 -47 -13 -51 15 -3 16 0 21 9 16 8 -6 10 -4 4 5 -4 7 -2 16 6 20 16 10
41 -33 32 -56z m-167 37 c-19 -7 -19 -8 2 -13 12 -4 22 -13 22 -21 0 -18 -41
-30 -54 -17 -14 14 10 60 31 59 16 0 16 -1 -1 -8z m74 -165 c0 -2 -7 -6 -15
-10 -8 -3 -15 -1 -15 4 0 6 7 10 15 10 8 0 15 -2 15 -4z m65 -6 c4 -6 11 -8
16 -4 11 7 69 -5 69 -14 0 -4 -29 -8 -65 -9 -58 -2 -65 0 -65 18 0 20 34 27
45 9z m-340 -17 c15 -9 10 -11 -26 -17 -24 -3 -59 -2 -78 4 -19 5 -45 7 -57 4
-13 -3 -29 -2 -36 3 -30 19 162 25 197 6z m501 -8 c-22 -17 -56 -20 -56 -6 0
8 19 14 65 19 6 1 1 -5 -9 -13z m-416 -5 c0 -5 -9 -10 -20 -10 -11 0 -20 5
-20 10 0 6 9 10 20 10 11 0 20 -4 20 -10z m40 0 c0 -5 -2 -10 -4 -10 -3 0 -8
5 -11 10 -3 6 -1 10 4 10 6 0 11 -4 11 -10z m2777 -113 c4 -8 25 -17 46 -20
93 -15 162 -99 161 -197 0 -66 -12 -90 -82 -165 -51 -55 -53 -56 -95 -50 l-42
7 2 -72 c0 -39 4 -74 7 -78 4 -3 22 -5 40 -4 29 2 39 -4 77 -50 56 -66 69 -96
69 -157 0 -88 -58 -169 -138 -191 -20 -5 -43 -10 -50 -10 -7 0 -16 -10 -21
-22 l-9 -23 -11 25 c-7 14 -31 34 -53 45 -119 58 -134 246 -26 329 18 13 46
29 62 35 19 8 26 16 22 27 -3 9 -6 48 -6 87 l-1 72 -43 26 c-54 33 -88 95 -88
164 -1 65 23 115 76 160 22 19 50 44 61 55 24 23 31 25 42 7z m-1710 -989 c-3
-8 -6 -5 -6 6 -1 11 2 17 5 13 3 -3 4 -12 1 -19z m1479 -173 c117 -82 195
-115 268 -115 92 0 208 49 286 120 42 38 45 39 48 19 7 -41 -104 -131 -210
-170 -55 -20 -173 -26 -206 -11 -9 5 -44 22 -77 38 -101 48 -205 125 -205 151
0 13 4 23 8 23 5 0 44 -25 88 -55z"/>
<path d="M2830 4190 c0 -5 5 -10 10 -10 6 0 10 5 10 10 0 6 -4 10 -10 10 -5 0
-10 -4 -10 -10z"/>
<path d="M4510 1998 l-25 -10 23 -11 c12 -5 22 -14 22 -19 0 -17 28 -7 44 17
9 13 16 27 16 30 0 9 -53 4 -80 -7z"/>
<path d="M4458 1851 c-27 -9 -48 -21 -48 -27 0 -18 64 -44 108 -44 51 0 75
-21 62 -55 -17 -44 6 -70 48 -54 23 9 29 36 13 67 -4 9 -17 35 -27 57 -36 76
-66 87 -156 56z m172 -165 c0 -6 -7 -1 -15 10 -8 10 -15 23 -15 28 0 6 7 1 15
-10 8 -10 15 -23 15 -28z"/>
<path d="M2683 6593 c-15 -5 -18 -83 -4 -83 5 0 11 20 13 45 2 25 3 45 3 44 0
0 -6 -3 -12 -6z"/>
<path d="M1623 5735 c-57 -78 -61 -85 -43 -95 26 -14 73 -13 88 2 7 7 12 23
12 36 0 13 4 31 9 40 5 9 6 36 2 59 l-6 43 -62 -85z"/>
<path d="M3854 5566 c-3 -9 -12 -16 -20 -16 -8 0 -14 -3 -14 -7 1 -19 18 -29
51 -29 19 0 41 -4 48 -9 8 -4 17 -2 22 6 17 26 9 47 -18 53 -16 4 -36 9 -46
12 -10 3 -20 -1 -23 -10z"/>
<path d="M3524 5528 c-3 -4 -15 -9 -27 -9 -17 -1 -18 -2 -4 -6 9 -2 17 -7 17
-9 0 -10 -29 -34 -40 -34 -8 0 -8 -6 0 -20 6 -11 15 -18 19 -16 4 3 34 8 66
11 33 3 60 7 61 8 1 1 5 14 9 30 6 22 4 27 -11 28 -18 0 -17 1 1 9 25 11 22
12 -38 14 -26 1 -50 -1 -53 -6z"/>
<path d="M3690 5480 c0 -5 -12 -11 -27 -11 -27 -2 -27 -2 -3 -6 14 -2 32 -7
40 -10 24 -11 84 -9 92 1 13 19 -15 36 -58 36 -24 0 -44 -4 -44 -10z m47 -16
c-3 -3 -12 -4 -19 -1 -8 3 -5 6 6 6 11 1 17 -2 13 -5z"/>
<path d="M3978 5373 c7 -3 16 -2 19 1 4 3 -2 6 -13 5 -11 0 -14 -3 -6 -6z"/>
<path d="M3970 5303 c-25 -2 -54 -7 -65 -12 -39 -18 -51 -19 -70 -5 -28 21
-35 17 -35 -16 0 -16 -2 -30 -4 -30 -2 0 -11 -3 -20 -6 -11 -4 -16 -1 -16 10
0 22 -30 33 -40 16 -7 -11 -12 -11 -22 -2 -9 7 -40 10 -79 8 -65 -3 -81 -7
-134 -31 -37 -16 -82 -28 -115 -30 -30 -1 -90 -52 -90 -77 0 -9 -4 -20 -10
-23 -13 -8 -13 -78 1 -92 6 -6 28 -9 49 -6 29 4 46 0 67 -15 25 -18 37 -20 85
-13 53 7 57 6 67 -16 11 -24 31 -23 31 1 0 15 79 31 109 21 13 -4 26 4 44 28
28 37 58 103 50 111 -3 2 -2 9 1 14 7 12 61 0 61 -14 0 -12 45 -70 45 -58 0 5
7 1 14 -9 12 -15 20 -17 49 -9 19 6 39 6 44 2 14 -13 86 -23 78 -11 -4 7 4 11
19 11 14 0 26 -5 26 -10 0 -7 6 -7 18 0 9 5 30 15 46 20 25 9 28 14 23 40 -6
28 -5 29 27 28 75 -3 75 33 0 61 -31 12 -62 28 -70 36 -12 12 -11 14 5 20 13
4 35 -5 65 -27 30 -20 50 -28 56 -22 13 13 1 54 -16 54 -7 0 -11 6 -8 14 4 9
-11 16 -51 24 -30 6 -62 9 -70 6 -8 -4 -15 -1 -15 5 0 11 -47 12 -150 4z
m-532 -135 c2 -9 -3 -18 -11 -21 -10 -4 -14 2 -14 19 0 27 20 28 25 2z m126
-79 c-3 -5 -10 -7 -15 -3 -5 3 -7 10 -3 15 3 5 10 7 15 3 5 -3 7 -10 3 -15z"/>
<path d="M4430 5132 c-37 -13 -55 -54 -20 -45 12 3 22 -1 26 -11 9 -24 21 -11
22 23 1 34 -5 41 -28 33z"/>
<path d="M4404 5038 c3 -13 6 -42 6 -65 0 -32 4 -43 15 -43 31 0 40 83 12 118
-17 21 -40 15 -33 -10z"/>
<path d="M6697 5014 c-13 -13 -7 -44 8 -44 16 0 17 5 6 33 -3 10 -10 15 -14
11z"/>
<path d="M6730 4980 c0 -5 5 -10 11 -10 5 0 7 5 4 10 -3 6 -8 10 -11 10 -2 0
-4 -4 -4 -10z"/>
<path d="M3670 4904 c0 -14 4 -23 9 -20 5 3 7 15 4 26 -7 28 -13 25 -13 -6z"/>
<path d="M6696 4918 c-3 -7 -12 -49 -21 -93 -9 -44 -21 -89 -25 -100 -5 -11
-14 -56 -20 -100 -6 -44 -16 -102 -20 -130 -23 -128 -32 -405 -18 -535 5 -47
11 -101 13 -120 2 -19 10 -66 19 -105 8 -38 17 -83 18 -100 2 -22 9 -31 26
-33 21 -3 22 0 24 80 0 46 2 97 4 113 6 64 15 1135 9 1135 -3 0 -7 -6 -9 -12z"/>
<path d="M4434 4909 c-3 -6 -1 -16 5 -22 8 -8 11 -5 11 11 0 24 -5 28 -16 11z"/>
<path d="M3248 4903 c7 -3 16 -2 19 1 4 3 -2 6 -13 5 -11 0 -14 -3 -6 -6z"/>
<path d="M1850 4705 c0 -8 5 -15 10 -15 6 0 10 7 10 15 0 8 -4 15 -10 15 -5 0
-10 -7 -10 -15z"/>
<path d="M1958 4498 c8 -8 17 -8 34 0 22 10 21 11 -11 11 -27 1 -32 -2 -23
-11z"/>
<path d="M6570 4451 c0 -25 6 -27 13 -6 4 8 2 17 -3 20 -6 4 -10 -3 -10 -14z"/>
<path d="M6563 4388 c-19 -25 -32 -77 -21 -84 13 -8 28 14 28 43 0 12 5 25 10
28 12 8 13 25 1 25 -5 0 -13 -6 -18 -12z"/>
<path d="M6919 4293 c-9 -52 -9 -220 -1 -329 6 -80 4 -100 -5 -97 -9 4 -13 -6
-14 -28 -2 -70 3 -234 7 -238 12 -12 18 19 21 111 1 55 5 103 8 106 7 8 4 375
-4 447 -5 50 -7 55 -12 28z"/>
<path d="M6521 4230 c-22 -40 -23 -70 0 -70 6 0 9 7 5 15 -4 10 1 14 16 12 19
-2 22 3 24 41 2 54 -15 55 -45 2z m39 -9 c0 -6 -4 -13 -10 -16 -5 -3 -10 1
-10 9 0 9 5 16 10 16 6 0 10 -4 10 -9z"/>
<path d="M6516 4113 c-4 -9 -1 -20 6 -25 21 -13 25 -9 20 17 -5 29 -17 32 -26
8z"/>
<path d="M6521 4030 c1 -25 6 -55 10 -66 4 -12 5 -25 1 -28 -3 -4 -6 -15 -7
-25 -1 -13 4 -17 19 -14 14 3 17 2 9 -4 -13 -9 -35 -131 -26 -145 2 -5 10 -8
18 -8 25 0 28 47 11 233 -3 32 -13 68 -21 80 -14 21 -15 19 -14 -23z"/>
<path d="M6750 3930 c0 -5 5 -10 11 -10 5 0 7 5 4 10 -3 6 -8 10 -11 10 -2 0
-4 -4 -4 -10z"/>
<path d="M6537 3724 c-8 -8 1 -24 14 -24 5 0 9 7 9 15 0 15 -12 20 -23 9z"/>
<path d="M6663 3553 c12 -84 22 -119 30 -100 12 31 -4 137 -20 137 -12 0 -14
-9 -10 -37z"/>
<path d="M6703 3385 c0 -22 2 -30 4 -17 2 12 2 30 0 40 -3 9 -5 -1 -4 -23z"/>
<path d="M6770 3115 c0 -8 7 -15 15 -15 8 0 15 7 15 15 0 8 -7 15 -15 15 -8 0
-15 -7 -15 -15z"/>
<path d="M6781 3064 c0 -11 3 -14 6 -6 3 7 2 16 -1 19 -3 4 -6 -2 -5 -13z"/>
<path d="M5856 3062 c-3 -6 -1 -14 5 -17 15 -10 25 3 12 16 -7 7 -13 7 -17 1z"/>
<path d="M1800 3051 c0 -5 -3 -16 -6 -25 -4 -11 -1 -16 10 -16 10 0 16 9 16
25 0 14 -4 25 -10 25 -5 0 -10 -4 -10 -9z"/>
<path d="M5850 3001 c0 -6 5 -13 10 -16 6 -3 10 1 10 9 0 9 -4 16 -10 16 -5 0
-10 -4 -10 -9z"/>
<path d="M1772 2905 c0 -16 2 -22 5 -12 2 9 2 23 0 30 -3 6 -5 -1 -5 -18z"/>
</g>
</svg>
